<svg width="41" height="28" viewBox="0 0 41 28" fill="none" xmlns="http://www.w3.org/2000/svg">
<path d="M0.285156 1.40625H9.83008C11.7871 1.40625 13.4688 1.69922 14.875 2.28516C16.293 2.87109 17.3828 3.73828 18.1445 4.88672C18.9062 6.03516 19.2871 7.44727 19.2871 9.12305C19.2871 10.4941 19.0527 11.6719 18.584 12.6562C18.127 13.6289 17.4766 14.4434 16.6328 15.0996C15.8008 15.7441 14.8223 16.2598 13.6973 16.6465L12.0273 17.5254H3.73047L3.69531 13.4121H9.86523C10.791 13.4121 11.5586 13.248 12.168 12.9199C12.7773 12.5918 13.2344 12.1348 13.5391 11.5488C13.8555 10.9629 14.0137 10.2832 14.0137 9.50977C14.0137 8.68945 13.8613 7.98047 13.5566 7.38281C13.252 6.78516 12.7891 6.32812 12.168 6.01172C11.5469 5.69531 10.7676 5.53711 9.83008 5.53711H5.55859V27H0.285156V1.40625ZM14.5938 27L8.75781 15.5918L14.3301 15.5566L20.2363 26.7539V27H14.5938ZM23.0312 0H28.0938V22.6406L27.584 27H23.0312V0ZM40.1348 17.2969V17.666C40.1348 19.084 39.9824 20.3848 39.6777 21.5684C39.3848 22.752 38.9277 23.7773 38.3066 24.6445C37.6855 25.5 36.9121 26.168 35.9863 26.6484C35.0723 27.1172 33.9941 27.3516 32.752 27.3516C31.5918 27.3516 30.584 27.1172 29.7285 26.6484C28.8848 26.1797 28.1758 25.5176 27.6016 24.6621C27.0273 23.8066 26.5645 22.8047 26.2129 21.6562C25.8613 20.5078 25.5977 19.2539 25.4219 17.8945V17.0859C25.5977 15.7266 25.8613 14.4727 26.2129 13.3242C26.5645 12.1758 27.0273 11.1738 27.6016 10.3184C28.1758 9.46289 28.8848 8.80078 29.7285 8.33203C30.5723 7.86328 31.5684 7.62891 32.7168 7.62891C33.9707 7.62891 35.0605 7.86914 35.9863 8.34961C36.9238 8.81836 37.6973 9.48633 38.3066 10.3535C38.9277 11.209 39.3848 12.2285 39.6777 13.4121C39.9824 14.584 40.1348 15.8789 40.1348 17.2969ZM35.0723 17.666V17.2969C35.0723 16.5234 35.0137 15.7969 34.8965 15.1172C34.791 14.4258 34.6035 13.8223 34.334 13.3066C34.0645 12.7793 33.6953 12.3633 33.2266 12.0586C32.7695 11.7539 32.1777 11.6016 31.4512 11.6016C30.7598 11.6016 30.1738 11.7188 29.6934 11.9531C29.2129 12.1875 28.8145 12.5156 28.498 12.9375C28.1934 13.3594 27.9648 13.8633 27.8125 14.4492C27.6602 15.0234 27.5664 15.6562 27.5312 16.3477V18.6504C27.5664 19.5762 27.7188 20.3965 27.9883 21.1113C28.2695 21.8145 28.6914 22.3711 29.2539 22.7812C29.8281 23.1797 30.5723 23.3789 31.4863 23.3789C32.2012 23.3789 32.793 23.2383 33.2617 22.957C33.7305 22.6758 34.0938 22.2773 34.3516 21.7617C34.6211 21.2461 34.8086 20.6426 34.9141 19.9512C35.0195 19.248 35.0723 18.4863 35.0723 17.666Z" fill="#146FCA"/>
</svg>
